<mxfile host="app.diagrams.net" agent="Mozilla/5.0 (Windows NT 10.0; Win64; x64) AppleWebKit/537.36 (KHTML, like Gecko) Chrome/134.0.0.0 Safari/537.36 Edg/134.0.0.0" version="26.1.3">
  <diagram name="Use-Case Diagram" id="use-case-diagram">
    <mxGraphModel dx="1389" dy="753" grid="1" gridSize="10" guides="1" tooltips="1" connect="1" arrows="1" fold="1" page="1" pageScale="1" pageWidth="827" pageHeight="1169" background="#ffffff" math="0" shadow="0">
      <root>
        <mxCell id="0" />
        <mxCell id="1" parent="0" />
        <mxCell id="2" value="Клієнт" style="shape=umlActor;verticalLabelPosition=bottom;verticalAlign=top;html=1;fillColor=#1A5EFF;strokeColor=#3466FF;strokeWidth=2;fontStyle=1;fontColor=#000099;fontSize=21;fontFamily=Verdana;" parent="1" vertex="1">
          <mxGeometry x="50" y="385" width="60" height="100" as="geometry" />
        </mxCell>
        <mxCell id="3" value="Адміністратор" style="shape=umlActor;verticalLabelPosition=bottom;verticalAlign=top;html=1;fillColor=#832AFF;strokeColor=#6600CC;strokeWidth=2;fontStyle=1;fontSize=21;fontColor=#330066;" parent="1" vertex="1">
          <mxGeometry x="720" y="350" width="60" height="100" as="geometry" />
        </mxCell>
        <mxCell id="4" value="Перегляд продуктів" style="ellipse;whiteSpace=wrap;html=1;fillColor=#CCCCFF;strokeWidth=2;fontStyle=1;strokeColor=#0000FF;fontFamily=Verdana;fontColor=light-dark(#08087d, #cdcdff);" parent="1" vertex="1">
          <mxGeometry x="200" y="50" width="120" height="60" as="geometry" />
        </mxCell>
        <mxCell id="5" value="Додавання до кошика" style="ellipse;whiteSpace=wrap;html=1;fillColor=#CCCCFF;strokeWidth=2;fontStyle=1;strokeColor=#0000FF;fontFamily=Verdana;fontColor=light-dark(#08087d, #cdcdff);" parent="1" vertex="1">
          <mxGeometry x="200" y="150" width="120" height="60" as="geometry" />
        </mxCell>
        <mxCell id="6" value="Оформлення замовлення" style="ellipse;whiteSpace=wrap;html=1;fillColor=#CCCCFF;strokeWidth=2;fontStyle=1;strokeColor=#0000FF;fontFamily=Verdana;fontColor=light-dark(#08087d, #cdcdff);" parent="1" vertex="1">
          <mxGeometry x="200" y="250" width="120" height="60" as="geometry" />
        </mxCell>
        <mxCell id="7" value="Перегляд історії замовлень" style="ellipse;whiteSpace=wrap;html=1;fillColor=#CCCCFF;strokeWidth=2;fontStyle=1;strokeColor=#0000FF;fontFamily=Verdana;fontColor=light-dark(#08087d, #cdcdff);" parent="1" vertex="1">
          <mxGeometry x="200" y="350" width="120" height="60" as="geometry" />
        </mxCell>
        <mxCell id="8" value="Додавання до списку бажань" style="ellipse;whiteSpace=wrap;html=1;fillColor=#CCCCFF;strokeWidth=2;fontStyle=1;strokeColor=#0000FF;fontFamily=Verdana;fontColor=light-dark(#08087d, #cdcdff);" parent="1" vertex="1">
          <mxGeometry x="200" y="450" width="120" height="60" as="geometry" />
        </mxCell>
        <mxCell id="9" value="Написання відгуку" style="ellipse;whiteSpace=wrap;html=1;fillColor=#CCCCFF;strokeWidth=2;fontStyle=1;strokeColor=#0000FF;fontFamily=Verdana;fontColor=light-dark(#08087d, #cdcdff);" parent="1" vertex="1">
          <mxGeometry x="200" y="550" width="120" height="60" as="geometry" />
        </mxCell>
        <mxCell id="10" value="Реєстрація/вхід" style="ellipse;whiteSpace=wrap;html=1;fillColor=#CCCCFF;strokeWidth=2;fontStyle=1;strokeColor=#0000FF;fontFamily=Verdana;fontColor=light-dark(#08087d, #cdcdff);" parent="1" vertex="1">
          <mxGeometry x="200" y="650" width="120" height="60" as="geometry" />
        </mxCell>
        <mxCell id="11" value="Оновлення профілю" style="ellipse;whiteSpace=wrap;html=1;fillColor=#CCCCFF;strokeWidth=2;fontStyle=1;strokeColor=#0000FF;fontFamily=Verdana;fontColor=light-dark(#08087d, #cdcdff);" parent="1" vertex="1">
          <mxGeometry x="200" y="750" width="120" height="60" as="geometry" />
        </mxCell>
        <mxCell id="12" value="Керування продуктами" style="ellipse;whiteSpace=wrap;html=1;fillColor=#E5CCFF;strokeWidth=2;fontStyle=1;strokeColor=#4C0099;fontColor=#330066;fontFamily=Verdana;" parent="1" vertex="1">
          <mxGeometry x="510" y="200" width="120" height="60" as="geometry" />
        </mxCell>
        <mxCell id="13" value="Керування замовленнями" style="ellipse;whiteSpace=wrap;html=1;fillColor=#E5CCFF;strokeWidth=2;fontStyle=1;strokeColor=#4C0099;fontColor=#330066;fontFamily=Verdana;" parent="1" vertex="1">
          <mxGeometry x="510" y="300" width="120" height="60" as="geometry" />
        </mxCell>
        <mxCell id="14" value="Керування рахунками" style="ellipse;whiteSpace=wrap;html=1;fillColor=#E5CCFF;strokeWidth=2;fontStyle=1;strokeColor=#4C0099;fontColor=#330066;fontFamily=Verdana;" parent="1" vertex="1">
          <mxGeometry x="510" y="400" width="120" height="60" as="geometry" />
        </mxCell>
        <mxCell id="15" value="Керування клієнтами" style="ellipse;whiteSpace=wrap;html=1;fillColor=#E5CCFF;strokeWidth=2;fontStyle=1;strokeColor=#4C0099;fontColor=#330066;fontFamily=Verdana;" parent="1" vertex="1">
          <mxGeometry x="510" y="500" width="120" height="60" as="geometry" />
        </mxCell>
        <mxCell id="MJFEimFumA4A6lBr3DWK-40" value="" style="strokeWidth=2;html=1;shape=mxgraph.flowchart.annotation_2;align=left;labelPosition=right;pointerEvents=1;strokeColor=#0000FF;fontStyle=1" vertex="1" parent="1">
          <mxGeometry x="120" y="80" width="50" height="710" as="geometry" />
        </mxCell>
        <mxCell id="MJFEimFumA4A6lBr3DWK-41" value="" style="strokeWidth=2;html=1;shape=mxgraph.flowchart.annotation_2;align=right;labelPosition=left;pointerEvents=1;rotation=-180;strokeColor=#7F00FF;fontStyle=1" vertex="1" parent="1">
          <mxGeometry x="650" y="230" width="50" height="300" as="geometry" />
        </mxCell>
      </root>
    </mxGraphModel>
  </diagram>
</mxfile>
